<?xml version="1.0" encoding="UTF-8" standalone="no"?>
<!DOCTYPE svg PUBLIC "-//W3C//DTD SVG 1.1//EN"
 "http://www.w3.org/Graphics/SVG/1.1/DTD/svg11.dtd">
<!-- Generated by graphviz version 2.40.1 (20161225.0304)
 -->
<!-- Title: dependencies Pages: 1 -->
<svg width="715pt" height="284pt"
 viewBox="0.00 0.00 715.00 284.00" xmlns="http://www.w3.org/2000/svg" xmlns:xlink="http://www.w3.org/1999/xlink">
<g id="graph0" class="graph" transform="scale(1 1) rotate(0) translate(4 280)">
<title>dependencies</title>
<polygon fill="#ffffff" stroke="transparent" points="-4,4 -4,-280 711,-280 711,4 -4,4"/>
<text text-anchor="start" x="332.5091" y="-42.4" font-family="sans-serif" font-weight="bold" font-size="14.00" fill="#000000">Legend</text>
<polygon fill="#ffffb3" stroke="transparent" points="119.5,-10 119.5,-30 139.5,-30 139.5,-10 119.5,-10"/>
<text text-anchor="start" x="143.129" y="-15.4" font-family="sans-serif" font-size="14.00" fill="#000000"> &#160;Declarations</text>
<polygon fill="#8dd3c7" stroke="transparent" points="232.5,-10 232.5,-30 252.5,-30 252.5,-10 232.5,-10"/>
<text text-anchor="start" x="256.2251" y="-15.4" font-family="sans-serif" font-size="14.00" fill="#000000"> &#160;Module</text>
<polygon fill="#80b1d3" stroke="transparent" points="318.5,-10 318.5,-30 338.5,-30 338.5,-10 318.5,-10"/>
<text text-anchor="start" x="342.2812" y="-15.4" font-family="sans-serif" font-size="14.00" fill="#000000"> &#160;Bootstrap</text>
<polygon fill="#fdb462" stroke="transparent" points="415.5,-10 415.5,-30 435.5,-30 435.5,-10 415.5,-10"/>
<text text-anchor="start" x="439.1732" y="-15.4" font-family="sans-serif" font-size="14.00" fill="#000000"> &#160;Providers</text>
<polygon fill="#fb8072" stroke="transparent" points="511.5,-10 511.5,-30 531.5,-30 531.5,-10 511.5,-10"/>
<text text-anchor="start" x="535.2258" y="-15.4" font-family="sans-serif" font-size="14.00" fill="#000000"> &#160;Exports</text>
<g id="clust1" class="cluster">
<title>cluster_ComunModule</title>
<polygon fill="none" stroke="#000000" stroke-dasharray="1,5" points="8,-70 8,-268 699,-268 699,-70 8,-70"/>
</g>
<g id="clust2" class="cluster">
<title>cluster_ComunModule_declarations</title>
<polygon fill="none" stroke="#000000" points="152,-78 152,-130 691,-130 691,-78 152,-78"/>
</g>
<g id="clust7" class="cluster">
<title>cluster_ComunModule_imports</title>
<polygon fill="none" stroke="#000000" points="16,-78 16,-130 144,-130 144,-78 16,-78"/>
</g>
<g id="clust8" class="cluster">
<title>cluster_ComunModule_exports</title>
<polygon fill="none" stroke="#000000" points="77,-208 77,-260 630,-260 630,-208 77,-208"/>
</g>
<!-- CabeceraComponent -->
<g id="node1" class="node">
<title>CabeceraComponent</title>
<polygon fill="#ffffb3" stroke="#000000" points="682.9032,-122 549.0968,-122 549.0968,-86 682.9032,-86 682.9032,-122"/>
<text text-anchor="middle" x="616" y="-99.8" font-family="Times,serif" font-size="14.00" fill="#000000">CabeceraComponent</text>
</g>
<!-- ComunModule -->
<g id="node5" class="node">
<title>ComunModule</title>
<polygon fill="#8dd3c7" stroke="#000000" points="388.2772,-187 385.2772,-191 364.2772,-191 361.2772,-187 287.7228,-187 287.7228,-151 388.2772,-151 388.2772,-187"/>
<text text-anchor="middle" x="338" y="-164.8" font-family="Times,serif" font-size="14.00" fill="#000000">ComunModule</text>
</g>
<!-- CabeceraComponent&#45;&gt;ComunModule -->
<g id="edge1" class="edge">
<title>CabeceraComponent&#45;&gt;ComunModule</title>
<path fill="none" stroke="#000000" d="M585.875,-122.1061C585.875,-141.3391 585.875,-169 585.875,-169 585.875,-169 398.46,-169 398.46,-169"/>
<polygon fill="#000000" stroke="#000000" points="398.46,-165.5001 388.46,-169 398.4599,-172.5001 398.46,-165.5001"/>
</g>
<!-- HomeComponent -->
<g id="node2" class="node">
<title>HomeComponent</title>
<polygon fill="#ffffb3" stroke="#000000" points="531.5451,-122 416.4549,-122 416.4549,-86 531.5451,-86 531.5451,-122"/>
<text text-anchor="middle" x="474" y="-99.8" font-family="Times,serif" font-size="14.00" fill="#000000">HomeComponent</text>
</g>
<!-- HomeComponent&#45;&gt;ComunModule -->
<g id="edge2" class="edge">
<title>HomeComponent&#45;&gt;ComunModule</title>
<path fill="none" stroke="#000000" d="M441.875,-122.027C441.875,-138.3976 441.875,-160 441.875,-160 441.875,-160 398.4161,-160 398.4161,-160"/>
<polygon fill="#000000" stroke="#000000" points="398.4161,-156.5001 388.4161,-160 398.4161,-163.5001 398.4161,-156.5001"/>
</g>
<!-- LateralComponent -->
<g id="node3" class="node">
<title>LateralComponent</title>
<polygon fill="#ffffb3" stroke="#000000" points="398.4706,-122 277.5294,-122 277.5294,-86 398.4706,-86 398.4706,-122"/>
<text text-anchor="middle" x="338" y="-99.8" font-family="Times,serif" font-size="14.00" fill="#000000">LateralComponent</text>
</g>
<!-- LateralComponent&#45;&gt;ComunModule -->
<g id="edge3" class="edge">
<title>LateralComponent&#45;&gt;ComunModule</title>
<path fill="none" stroke="#000000" d="M338,-122.1061C338,-122.1061 338,-140.991 338,-140.991"/>
<polygon fill="#000000" stroke="#000000" points="334.5001,-140.9909 338,-150.991 341.5001,-140.991 334.5001,-140.9909"/>
</g>
<!-- PieComponent -->
<g id="node4" class="node">
<title>PieComponent</title>
<polygon fill="#ffffb3" stroke="#000000" points="259.7204,-122 160.2796,-122 160.2796,-86 259.7204,-86 259.7204,-122"/>
<text text-anchor="middle" x="210" y="-99.8" font-family="Times,serif" font-size="14.00" fill="#000000">PieComponent</text>
</g>
<!-- PieComponent&#45;&gt;ComunModule -->
<g id="edge4" class="edge">
<title>PieComponent&#45;&gt;ComunModule</title>
<path fill="none" stroke="#000000" d="M232.6874,-122.027C232.6874,-138.3976 232.6874,-160 232.6874,-160 232.6874,-160 277.5029,-160 277.5029,-160"/>
<polygon fill="#000000" stroke="#000000" points="277.5029,-163.5001 287.5029,-160 277.5029,-156.5001 277.5029,-163.5001"/>
</g>
<!-- CabeceraComponent  -->
<g id="node7" class="node">
<title>CabeceraComponent </title>
<polygon fill="#fb8072" stroke="#000000" points="622.4026,-252 485.5974,-252 485.5974,-216 622.4026,-216 622.4026,-252"/>
<text text-anchor="middle" x="554" y="-229.8" font-family="Times,serif" font-size="14.00" fill="#000000">CabeceraComponent </text>
</g>
<!-- ComunModule&#45;&gt;CabeceraComponent  -->
<g id="edge6" class="edge">
<title>ComunModule&#45;&gt;CabeceraComponent </title>
<path fill="none" stroke="#000000" stroke-dasharray="5,2" d="M388.2807,-178C438.6213,-178 508.6604,-178 508.6604,-178 508.6604,-178 508.6604,-205.973 508.6604,-205.973"/>
<polygon fill="#000000" stroke="#000000" points="505.1605,-205.973 508.6604,-215.973 512.1605,-205.973 505.1605,-205.973"/>
</g>
<!-- HomeComponent  -->
<g id="node8" class="node">
<title>HomeComponent </title>
<polygon fill="#fb8072" stroke="#000000" points="467.5442,-252 348.4558,-252 348.4558,-216 467.5442,-216 467.5442,-252"/>
<text text-anchor="middle" x="408" y="-229.8" font-family="Times,serif" font-size="14.00" fill="#000000">HomeComponent </text>
</g>
<!-- ComunModule&#45;&gt;HomeComponent  -->
<g id="edge7" class="edge">
<title>ComunModule&#45;&gt;HomeComponent </title>
<path fill="none" stroke="#000000" stroke-dasharray="5,2" d="M368.4332,-187.1061C368.4332,-187.1061 368.4332,-205.991 368.4332,-205.991"/>
<polygon fill="#000000" stroke="#000000" points="364.9333,-205.9909 368.4332,-215.991 371.9333,-205.991 364.9333,-205.9909"/>
</g>
<!-- LateralComponent  -->
<g id="node9" class="node">
<title>LateralComponent </title>
<polygon fill="#fb8072" stroke="#000000" points="330.4715,-252 205.5285,-252 205.5285,-216 330.4715,-216 330.4715,-252"/>
<text text-anchor="middle" x="268" y="-229.8" font-family="Times,serif" font-size="14.00" fill="#000000">LateralComponent </text>
</g>
<!-- ComunModule&#45;&gt;LateralComponent  -->
<g id="edge8" class="edge">
<title>ComunModule&#45;&gt;LateralComponent </title>
<path fill="none" stroke="#000000" stroke-dasharray="5,2" d="M308.9234,-187.1061C308.9234,-187.1061 308.9234,-205.991 308.9234,-205.991"/>
<polygon fill="#000000" stroke="#000000" points="305.4235,-205.9909 308.9234,-215.991 312.4235,-205.991 305.4235,-205.9909"/>
</g>
<!-- PieComponent  -->
<g id="node10" class="node">
<title>PieComponent </title>
<polygon fill="#fb8072" stroke="#000000" points="187.2206,-252 84.7794,-252 84.7794,-216 187.2206,-216 187.2206,-252"/>
<text text-anchor="middle" x="136" y="-229.8" font-family="Times,serif" font-size="14.00" fill="#000000">PieComponent </text>
</g>
<!-- ComunModule&#45;&gt;PieComponent  -->
<g id="edge9" class="edge">
<title>ComunModule&#45;&gt;PieComponent </title>
<path fill="none" stroke="#000000" stroke-dasharray="5,2" d="M287.4179,-178C239.1941,-178 173.875,-178 173.875,-178 173.875,-178 173.875,-205.973 173.875,-205.973"/>
<polygon fill="#000000" stroke="#000000" points="170.3751,-205.973 173.875,-215.973 177.3751,-205.973 170.3751,-205.973"/>
</g>
<!-- ServiciosModule -->
<g id="node6" class="node">
<title>ServiciosModule</title>
<polygon fill="#8dd3c7" stroke="#000000" points="135.6486,-122 132.6486,-126 111.6486,-126 108.6486,-122 24.3514,-122 24.3514,-86 135.6486,-86 135.6486,-122"/>
<text text-anchor="middle" x="80" y="-99.8" font-family="Times,serif" font-size="14.00" fill="#000000">ServiciosModule</text>
</g>
<!-- ServiciosModule&#45;&gt;ComunModule -->
<g id="edge5" class="edge">
<title>ServiciosModule&#45;&gt;ComunModule</title>
<path fill="none" stroke="#000000" d="M110.232,-122.1061C110.232,-141.3391 110.232,-169 110.2319,-169 110.2319,-169 277.4509,-169 277.4509,-169"/>
<polygon fill="#000000" stroke="#000000" points="277.4509,-172.5001 287.4509,-169 277.4509,-165.5001 277.4509,-172.5001"/>
</g>
</g>
</svg>
