<?xml version="1.0" encoding="UTF-8" standalone="no"?>
<!DOCTYPE svg PUBLIC "-//W3C//DTD SVG 1.1//EN"
 "http://www.w3.org/Graphics/SVG/1.1/DTD/svg11.dtd">
<!-- Generated by graphviz version 2.40.1 (20161225.0304)
 -->
<!-- Title: dependencies Pages: 1 -->
<svg width="1357pt" height="284pt"
 viewBox="0.00 0.00 1357.00 284.00" xmlns="http://www.w3.org/2000/svg" xmlns:xlink="http://www.w3.org/1999/xlink">
<g id="graph0" class="graph" transform="scale(1 1) rotate(0) translate(4 280)">
<title>dependencies</title>
<polygon fill="#ffffff" stroke="transparent" points="-4,4 -4,-280 1353,-280 1353,4 -4,4"/>
<text text-anchor="start" x="653.5091" y="-42.4" font-family="sans-serif" font-weight="bold" font-size="14.00" fill="#000000">Legend</text>
<polygon fill="#ffffb3" stroke="transparent" points="440.5,-10 440.5,-30 460.5,-30 460.5,-10 440.5,-10"/>
<text text-anchor="start" x="464.129" y="-15.4" font-family="sans-serif" font-size="14.00" fill="#000000"> &#160;Declarations</text>
<polygon fill="#8dd3c7" stroke="transparent" points="553.5,-10 553.5,-30 573.5,-30 573.5,-10 553.5,-10"/>
<text text-anchor="start" x="577.2251" y="-15.4" font-family="sans-serif" font-size="14.00" fill="#000000"> &#160;Module</text>
<polygon fill="#80b1d3" stroke="transparent" points="639.5,-10 639.5,-30 659.5,-30 659.5,-10 639.5,-10"/>
<text text-anchor="start" x="663.2812" y="-15.4" font-family="sans-serif" font-size="14.00" fill="#000000"> &#160;Bootstrap</text>
<polygon fill="#fdb462" stroke="transparent" points="736.5,-10 736.5,-30 756.5,-30 756.5,-10 736.5,-10"/>
<text text-anchor="start" x="760.1732" y="-15.4" font-family="sans-serif" font-size="14.00" fill="#000000"> &#160;Providers</text>
<polygon fill="#fb8072" stroke="transparent" points="832.5,-10 832.5,-30 852.5,-30 852.5,-10 832.5,-10"/>
<text text-anchor="start" x="856.2258" y="-15.4" font-family="sans-serif" font-size="14.00" fill="#000000"> &#160;Exports</text>
<g id="clust1" class="cluster">
<title>cluster_ActividadesModule</title>
<polygon fill="none" stroke="#000000" stroke-dasharray="1,5" points="8,-70 8,-268 1341,-268 1341,-70 8,-70"/>
</g>
<g id="clust2" class="cluster">
<title>cluster_ActividadesModule_declarations</title>
<polygon fill="none" stroke="#000000" points="140,-78 140,-130 1333,-130 1333,-78 140,-78"/>
</g>
<g id="clust9" class="cluster">
<title>cluster_ActividadesModule_imports</title>
<polygon fill="none" stroke="#000000" points="16,-78 16,-130 132,-130 132,-78 16,-78"/>
</g>
<g id="clust10" class="cluster">
<title>cluster_ActividadesModule_exports</title>
<polygon fill="none" stroke="#000000" points="554,-208 554,-260 948,-260 948,-208 554,-208"/>
</g>
<!-- ActividadDetalleComponent -->
<g id="node1" class="node">
<title>ActividadDetalleComponent</title>
<polygon fill="#ffffb3" stroke="#000000" points="1325.4622,-122 1148.5378,-122 1148.5378,-86 1325.4622,-86 1325.4622,-122"/>
<text text-anchor="middle" x="1237" y="-99.8" font-family="Times,serif" font-size="14.00" fill="#000000">ActividadDetalleComponent</text>
</g>
<!-- ActividadesModule -->
<g id="node7" class="node">
<title>ActividadesModule</title>
<polygon fill="#8dd3c7" stroke="#000000" points="715.4173,-187 712.4173,-191 691.4173,-191 688.4173,-187 588.5827,-187 588.5827,-151 715.4173,-151 715.4173,-187"/>
<text text-anchor="middle" x="652" y="-164.8" font-family="Times,serif" font-size="14.00" fill="#000000">ActividadesModule</text>
</g>
<!-- ActividadDetalleComponent&#45;&gt;ActividadesModule -->
<g id="edge1" class="edge">
<title>ActividadDetalleComponent&#45;&gt;ActividadesModule</title>
<path fill="none" stroke="#000000" d="M1237,-122.1289C1237,-142.5724 1237,-173 1237,-173 1237,-173 725.4397,-173 725.4397,-173"/>
<polygon fill="#000000" stroke="#000000" points="725.4398,-169.5001 715.4397,-173 725.4397,-176.5001 725.4398,-169.5001"/>
</g>
<!-- ActividadFormComponent -->
<g id="node2" class="node">
<title>ActividadFormComponent</title>
<polygon fill="#ffffb3" stroke="#000000" points="1130.3738,-122 963.6262,-122 963.6262,-86 1130.3738,-86 1130.3738,-122"/>
<text text-anchor="middle" x="1047" y="-99.8" font-family="Times,serif" font-size="14.00" fill="#000000">ActividadFormComponent</text>
</g>
<!-- ActividadFormComponent&#45;&gt;ActividadesModule -->
<g id="edge2" class="edge">
<title>ActividadFormComponent&#45;&gt;ActividadesModule</title>
<path fill="none" stroke="#000000" d="M1047,-122.2667C1047,-140.5552 1047,-166 1047,-166 1047,-166 725.4636,-166 725.4636,-166"/>
<polygon fill="#000000" stroke="#000000" points="725.4636,-162.5001 715.4636,-166 725.4635,-169.5001 725.4636,-162.5001"/>
</g>
<!-- ActividadHomeComponent -->
<g id="node3" class="node">
<title>ActividadHomeComponent</title>
<polygon fill="#ffffb3" stroke="#000000" points="945.252,-122 774.748,-122 774.748,-86 945.252,-86 945.252,-122"/>
<text text-anchor="middle" x="860" y="-99.8" font-family="Times,serif" font-size="14.00" fill="#000000">ActividadHomeComponent</text>
</g>
<!-- ActividadHomeComponent&#45;&gt;ActividadesModule -->
<g id="edge3" class="edge">
<title>ActividadHomeComponent&#45;&gt;ActividadesModule</title>
<path fill="none" stroke="#000000" d="M857.4276,-122.0091C857.4276,-138.0494 857.4276,-159 857.4276,-159 857.4276,-159 725.3113,-159 725.3113,-159"/>
<polygon fill="#000000" stroke="#000000" points="725.3113,-155.5001 715.3113,-159 725.3112,-162.5001 725.3113,-155.5001"/>
</g>
<!-- ActividadParticipantesComponent -->
<g id="node4" class="node">
<title>ActividadParticipantesComponent</title>
<polygon fill="#ffffb3" stroke="#000000" points="756.3487,-122 547.6513,-122 547.6513,-86 756.3487,-86 756.3487,-122"/>
<text text-anchor="middle" x="652" y="-99.8" font-family="Times,serif" font-size="14.00" fill="#000000">ActividadParticipantesComponent</text>
</g>
<!-- ActividadParticipantesComponent&#45;&gt;ActividadesModule -->
<g id="edge4" class="edge">
<title>ActividadParticipantesComponent&#45;&gt;ActividadesModule</title>
<path fill="none" stroke="#000000" d="M652,-122.1061C652,-122.1061 652,-140.991 652,-140.991"/>
<polygon fill="#000000" stroke="#000000" points="648.5001,-140.9909 652,-150.991 655.5001,-140.991 648.5001,-140.9909"/>
</g>
<!-- ActividadReservasComponent -->
<g id="node5" class="node">
<title>ActividadReservasComponent</title>
<polygon fill="#ffffb3" stroke="#000000" points="529.5702,-122 342.4298,-122 342.4298,-86 529.5702,-86 529.5702,-122"/>
<text text-anchor="middle" x="436" y="-99.8" font-family="Times,serif" font-size="14.00" fill="#000000">ActividadReservasComponent</text>
</g>
<!-- ActividadReservasComponent&#45;&gt;ActividadesModule -->
<g id="edge5" class="edge">
<title>ActividadReservasComponent&#45;&gt;ActividadesModule</title>
<path fill="none" stroke="#000000" d="M436,-122.027C436,-138.3976 436,-160 436,-160 436,-160 578.6523,-160 578.6523,-160"/>
<polygon fill="#000000" stroke="#000000" points="578.6524,-163.5001 588.6523,-160 578.6523,-156.5001 578.6524,-163.5001"/>
</g>
<!-- ActividadesListaComponent -->
<g id="node6" class="node">
<title>ActividadesListaComponent</title>
<polygon fill="#ffffb3" stroke="#000000" points="324.1923,-122 147.8077,-122 147.8077,-86 324.1923,-86 324.1923,-122"/>
<text text-anchor="middle" x="236" y="-99.8" font-family="Times,serif" font-size="14.00" fill="#000000">ActividadesListaComponent</text>
</g>
<!-- ActividadesListaComponent&#45;&gt;ActividadesModule -->
<g id="edge6" class="edge">
<title>ActividadesListaComponent&#45;&gt;ActividadesModule</title>
<path fill="none" stroke="#000000" d="M236,-122.1061C236,-141.3391 236,-169 236,-169 236,-169 578.3657,-169 578.3657,-169"/>
<polygon fill="#000000" stroke="#000000" points="578.3658,-172.5001 588.3657,-169 578.3657,-165.5001 578.3658,-172.5001"/>
</g>
<!-- ActividadDetalleComponent  -->
<g id="node9" class="node">
<title>ActividadDetalleComponent </title>
<polygon fill="#fb8072" stroke="#000000" points="940.4628,-252 759.5372,-252 759.5372,-216 940.4628,-216 940.4628,-252"/>
<text text-anchor="middle" x="850" y="-229.8" font-family="Times,serif" font-size="14.00" fill="#000000">ActividadDetalleComponent </text>
</g>
<!-- ActividadesModule&#45;&gt;ActividadDetalleComponent  -->
<g id="edge8" class="edge">
<title>ActividadesModule&#45;&gt;ActividadDetalleComponent </title>
<path fill="none" stroke="#000000" stroke-dasharray="5,2" d="M715.3271,-180C742.0953,-180 767.1965,-180 767.1965,-180 767.1965,-180 767.1965,-205.7181 767.1965,-205.7181"/>
<polygon fill="#000000" stroke="#000000" points="763.6966,-205.718 767.1965,-215.7181 770.6966,-205.7181 763.6966,-205.718"/>
</g>
<!-- ActividadesListaComponent  -->
<g id="node10" class="node">
<title>ActividadesListaComponent </title>
<polygon fill="#fb8072" stroke="#000000" points="741.6925,-252 562.3075,-252 562.3075,-216 741.6925,-216 741.6925,-252"/>
<text text-anchor="middle" x="652" y="-229.8" font-family="Times,serif" font-size="14.00" fill="#000000">ActividadesListaComponent </text>
</g>
<!-- ActividadesModule&#45;&gt;ActividadesListaComponent  -->
<g id="edge9" class="edge">
<title>ActividadesModule&#45;&gt;ActividadesListaComponent </title>
<path fill="none" stroke="#000000" stroke-dasharray="5,2" d="M630.9306,-187.1061C630.9306,-187.1061 630.9306,-205.991 630.9306,-205.991"/>
<polygon fill="#000000" stroke="#000000" points="627.4307,-205.9909 630.9306,-215.991 634.4307,-205.991 627.4307,-205.9909"/>
</g>
<!-- ActividadesModule&#45;&gt;ActividadesListaComponent  -->
<g id="edge10" class="edge">
<title>ActividadesModule&#45;&gt;ActividadesListaComponent </title>
<path fill="none" stroke="#000000" stroke-dasharray="5,2" d="M673.0694,-187.1061C673.0694,-187.1061 673.0694,-205.991 673.0694,-205.991"/>
<polygon fill="#000000" stroke="#000000" points="669.5695,-205.9909 673.0694,-215.991 676.5695,-205.991 669.5695,-205.9909"/>
</g>
<!-- ComunModule -->
<g id="node8" class="node">
<title>ComunModule</title>
<polygon fill="#8dd3c7" stroke="#000000" points="124.2772,-122 121.2772,-126 100.2772,-126 97.2772,-122 23.7228,-122 23.7228,-86 124.2772,-86 124.2772,-122"/>
<text text-anchor="middle" x="74" y="-99.8" font-family="Times,serif" font-size="14.00" fill="#000000">ComunModule</text>
</g>
<!-- ComunModule&#45;&gt;ActividadesModule -->
<g id="edge7" class="edge">
<title>ComunModule&#45;&gt;ActividadesModule</title>
<path fill="none" stroke="#000000" d="M74,-122.2921C74,-144.2057 74,-178 74,-178 74,-178 578.7673,-178 578.7673,-178"/>
<polygon fill="#000000" stroke="#000000" points="578.7673,-181.5001 588.7673,-178 578.7672,-174.5001 578.7673,-181.5001"/>
</g>
</g>
</svg>
